<?xml version="1.0" standalone="no"?>
<!DOCTYPE svg PUBLIC "-//W3C//DTD SVG 20010904//EN"
 "http://www.w3.org/TR/2001/REC-SVG-20010904/DTD/svg10.dtd">
<svg version="1.0" xmlns="http://www.w3.org/2000/svg"
 width="400.000000pt" height="400.000000pt" viewBox="0 0 400.000000 400.000000"
 preserveAspectRatio="xMidYMid meet">
<metadata>
Created by potrace 1.11, written by Peter Selinger 2001-2013
</metadata>
<g transform="translate(0.000000,400.000000) scale(0.100000,-0.100000)"
fill="#000000" stroke="none">
<path d="M527 2788 l1 -83 116 -3 116 -3 0 86 0 85 -117 0 -118 0 2 -82z"/>
<path d="M3168 2733 l-3 -98 -174 -5 -174 -5 -50 -178 c-27 -98 -51 -176 -54
-174 -2 2 -25 82 -52 178 l-48 174 -126 3 c-70 1 -127 0 -127 -3 0 -3 42 -119
94 -258 118 -318 121 -328 107 -356 -10 -18 -20 -21 -76 -21 l-65 0 0 -95 0
-95 108 0 c167 0 230 27 276 118 13 26 72 184 132 352 59 168 111 309 116 315
4 5 8 -14 8 -42 l0 -52 53 -3 52 -3 5 -195 c5 -210 10 -230 63 -265 37 -24
123 -35 213 -28 l84 6 0 88 0 89 -44 0 c-71 0 -76 11 -76 161 0 71 -1 132 -2
137 -2 4 25 8 60 10 l62 3 0 69 0 70 -60 0 -59 0 -3 98 -3 97 -117 3 -117 3
-3 -98z"/>
<path d="M1245 2634 c-22 -8 -53 -28 -70 -44 -17 -17 -33 -30 -36 -30 -3 0 -5
16 -4 35 l2 35 -116 0 -116 0 3 -315 3 -315 114 0 115 0 0 168 c0 92 5 185 10
207 17 74 89 108 141 66 24 -19 24 -22 27 -230 l3 -211 120 0 119 0 0 233 c0
241 -6 289 -43 341 -46 65 -178 94 -272 60z"/>
<path d="M1884 2626 c-141 -52 -214 -157 -214 -307 0 -98 29 -171 95 -235 68
-68 137 -94 245 -94 139 0 244 58 294 163 49 104 54 97 -79 97 l-116 0 -10
-29 c-13 -37 -49 -61 -89 -61 -71 0 -102 47 -102 154 1 114 30 161 102 161 40
0 90 -34 90 -62 0 -10 26 -13 116 -13 l116 0 -7 33 c-37 169 -252 264 -441
193z"/>
<path d="M526 2317 l2 -312 116 -3 116 -3 0 316 0 315 -117 0 -118 0 1 -313z"/>
<path d="M160 1521 c0 -47 4 -81 10 -81 6 0 10 31 10 74 0 41 -4 78 -10 81 -6
4 -10 -23 -10 -74z"/>
<path d="M1875 1590 c-3 -5 -1 -10 4 -10 6 0 11 5 11 10 0 6 -2 10 -4 10 -3 0
-8 -4 -11 -10z"/>
<path d="M2365 1589 c-11 -17 1 -21 15 -4 8 9 8 15 2 15 -6 0 -14 -5 -17 -11z"/>
<path d="M3670 1585 c-7 -8 -8 -15 -2 -15 5 0 15 7 22 15 7 8 8 15 2 15 -5 0
-15 -7 -22 -15z"/>
<path d="M443 1564 c-6 -13 -7 -24 -2 -24 5 0 9 -22 9 -50 0 -33 4 -50 13 -50
8 0 11 19 10 66 -2 75 -12 95 -30 58z"/>
<path d="M553 1564 c-6 -13 -7 -24 -2 -24 5 0 9 -22 9 -50 0 -45 2 -50 23 -49
12 0 16 3 10 6 -8 3 -13 23 -13 48 0 25 5 45 13 48 10 4 10 6 0 6 -7 1 -13 7
-13 15 0 25 -15 25 -27 0z"/>
<path d="M743 1572 c-5 -12 -6 -46 -3 -75 4 -42 9 -52 25 -55 16 -3 18 -1 8 9
-14 14 -18 85 -5 91 4 2 2 14 -4 28 l-13 24 -8 -22z"/>
<path d="M1060 1570 c0 -16 -7 -20 -30 -20 -32 0 -50 -22 -50 -63 0 -33 19
-47 63 -45 l37 1 0 74 c0 42 -4 73 -10 73 -5 0 -10 -9 -10 -20z m-5 -75 c0
-36 -2 -40 -25 -40 -20 0 -26 6 -28 28 -5 42 5 59 30 55 20 -3 23 -9 23 -43z"/>
<path d="M1813 1564 c-7 -14 -7 -26 -2 -30 5 -3 9 -11 8 -17 -5 -43 2 -77 17
-77 13 0 14 3 5 14 -13 16 -12 86 2 86 5 0 3 7 -4 17 -8 9 -12 18 -11 20 2 3
2 6 0 8 -2 2 -8 -7 -15 -21z"/>
<path d="M210 1494 c0 -67 18 -72 22 -6 3 40 6 47 26 50 20 3 22 0 22 -47 0
-29 5 -51 11 -51 6 0 9 21 7 53 l-3 52 -42 1 -43 2 0 -54z"/>
<path d="M334 1536 c-8 -21 10 -42 41 -50 33 -8 33 -36 1 -36 -13 0 -26 6 -29
13 -2 6 -8 9 -12 4 -15 -14 12 -29 46 -25 29 2 34 7 34 28 0 19 -7 26 -32 34
-18 5 -33 15 -33 22 0 17 32 18 49 2 11 -11 13 -10 9 2 -6 21 -66 26 -74 6z"/>
<path d="M513 1495 c0 -33 2 -45 4 -27 2 18 2 45 0 60 -2 15 -4 0 -4 -33z"/>
<path d="M622 1498 l3 -53 43 -1 42 -2 0 54 c0 30 -4 54 -10 54 -5 0 -10 -15
-10 -34 0 -47 -9 -66 -30 -66 -21 0 -27 13 -26 63 1 20 -3 37 -7 37 -4 0 -7
-24 -5 -52z"/>
<path d="M812 1538 c-15 -18 -17 -39 -9 -70 6 -24 13 -28 42 -28 24 0 37 6 45
19 14 26 13 64 -2 79 -16 16 -63 15 -76 0z m63 -43 c0 -36 -3 -40 -24 -40 -34
0 -48 26 -33 60 9 19 18 25 35 23 19 -3 22 -9 22 -43z"/>
<path d="M1114 1525 c-21 -33 -11 -73 20 -81 37 -9 60 -1 64 21 3 19 2 19 -11
3 -16 -21 -38 -23 -55 -6 -21 21 -13 28 33 28 46 0 53 7 35 41 -16 29 -65 25
-86 -6z m74 -2 c2 -9 -8 -13 -33 -13 -33 0 -36 2 -25 15 15 18 51 16 58 -2z"/>
<path d="M1303 1495 c0 -33 2 -45 4 -27 2 18 2 45 0 60 -2 15 -4 0 -4 -33z"/>
<path d="M1341 1493 c-1 -31 3 -53 9 -53 5 0 10 17 10 39 0 41 20 67 45 57 10
-4 15 -19 15 -51 0 -25 5 -45 10 -45 12 0 13 79 2 98 -5 7 -26 11 -49 10 l-40
-1 -2 -54z"/>
<path d="M1460 1544 c0 -23 37 -104 47 -104 7 0 13 2 13 5 0 2 9 27 20 56 13
32 16 49 8 47 -6 -2 -16 -18 -22 -35 -17 -48 -24 -49 -37 -4 -7 23 -16 41 -21
41 -4 0 -8 -3 -8 -6z"/>
<path d="M1578 1525 c-18 -40 0 -79 38 -83 19 -2 36 3 44 12 8 10 8 16 2 16
-6 0 -14 -4 -17 -10 -10 -16 -42 -12 -49 6 -9 24 -9 24 33 24 46 0 52 6 40 38
-13 34 -75 32 -91 -3z m72 0 c11 -13 7 -15 -23 -15 -28 0 -35 3 -31 15 4 8 14
15 24 15 10 0 23 -7 30 -15z"/>
<path d="M1707 1544 c-18 -18 -6 -44 26 -52 17 -4 32 -15 32 -22 0 -22 -37
-25 -53 -4 -13 18 -14 18 -10 -1 2 -14 12 -21 34 -23 58 -6 70 51 13 63 -16 4
-29 13 -29 21 0 17 31 18 49 2 11 -11 13 -10 9 2 -5 16 -59 26 -71 14z"/>
<path d="M1875 1495 c0 -30 3 -55 8 -55 4 0 7 25 7 55 0 30 -3 55 -7 55 -5 0
-8 -25 -8 -55z"/>
<path d="M1924 1528 c-18 -52 5 -93 48 -84 29 6 34 0 19 -23 -6 -10 -19 -12
-41 -7 -28 5 -31 4 -20 -9 15 -18 54 -20 68 -2 6 6 12 42 14 78 l3 66 -42 2
c-35 1 -43 -2 -49 -21z m64 0 c17 -17 15 -44 -4 -62 -21 -22 -33 -20 -45 8
-20 43 18 85 49 54z"/>
<path d="M2057 1543 c-15 -14 -6 -23 12 -12 19 13 51 6 51 -10 0 -5 -17 -13
-37 -18 -31 -7 -38 -13 -38 -33 0 -23 4 -25 53 -27 38 -1 50 2 45 10 -4 7 -8
26 -9 42 -2 53 -3 55 -37 55 -19 0 -37 -3 -40 -7z m63 -61 c0 -14 -23 -32 -42
-32 -18 0 -25 20 -11 33 9 10 53 9 53 -1z"/>
<path d="M2168 1525 c-17 -38 0 -79 35 -83 31 -4 60 14 51 30 -4 6 -10 4 -16
-6 -5 -9 -18 -16 -28 -16 -22 0 -36 37 -25 69 7 22 39 29 50 11 10 -16 25 -12
19 5 -4 9 -19 15 -40 15 -27 0 -37 -5 -46 -25z"/>
<path d="M2280 1495 c0 -30 5 -55 10 -55 6 0 10 25 10 55 0 30 -4 55 -10 55
-5 0 -10 -25 -10 -55z"/>
<path d="M2328 1525 c-8 -18 -9 -35 -2 -53 8 -22 15 -27 44 -27 45 0 71 39 52
79 -9 21 -19 26 -47 26 -28 0 -38 -5 -47 -25z m70 3 c26 -26 7 -78 -29 -78
-28 0 -40 55 -17 78 7 7 17 12 23 12 6 0 16 -5 23 -12z"/>
<path d="M2450 1493 c0 -66 18 -70 22 -5 3 43 5 47 28 47 23 0 25 -4 28 -47 4
-59 22 -64 22 -5 0 58 -9 67 -58 65 l-42 -1 0 -54z"/>
<path d="M2630 1545 c0 -2 9 -27 20 -55 24 -61 24 -55 4 -75 -9 -9 -13 -19
-10 -22 12 -12 35 22 60 90 16 41 21 67 14 65 -7 -3 -16 -18 -20 -36 -12 -46
-26 -47 -38 -2 -6 22 -15 40 -20 40 -6 0 -10 -2 -10 -5z"/>
<path d="M2810 1469 c0 -46 4 -79 10 -79 6 0 10 11 10 25 0 21 5 25 30 25 38
0 59 36 44 78 -8 23 -15 27 -52 28 l-42 2 0 -79z m76 44 c8 -32 -6 -58 -32
-58 -20 0 -31 41 -20 71 10 25 45 16 52 -13z"/>
<path d="M2930 1493 c0 -29 5 -53 10 -53 6 0 10 18 10 39 0 29 6 44 21 55 21
14 21 15 -10 14 -31 -1 -31 -1 -31 -55z"/>
<path d="M3008 1525 c-8 -18 -9 -35 -2 -53 8 -22 15 -27 44 -27 28 0 37 5 48
28 12 24 11 31 -2 53 -23 34 -72 33 -88 -1z m72 -1 c21 -24 1 -69 -30 -69 -20
0 -26 6 -28 28 -2 16 -1 35 2 43 7 19 40 18 56 -2z"/>
<path d="M3142 1489 c20 -60 20 -63 3 -75 -10 -8 -16 -17 -12 -20 12 -12 36
18 56 69 10 29 22 60 26 70 4 10 3 17 -4 17 -5 0 -16 -18 -22 -40 -7 -22 -15
-40 -19 -40 -3 0 -11 17 -16 37 -5 20 -14 38 -21 40 -8 3 -5 -17 9 -58z"/>
<path d="M3252 1538 c-7 -7 -12 -26 -12 -43 0 -17 5 -36 12 -43 17 -17 63 -15
78 3 8 9 9 15 2 15 -6 0 -14 -4 -17 -10 -11 -17 -44 -11 -55 10 -10 19 -8 20
35 20 46 0 53 7 35 41 -12 22 -59 26 -78 7z m62 -13 c4 -11 -2 -15 -24 -15
-29 0 -38 9 -23 23 12 12 41 7 47 -8z"/>
<path d="M3372 1538 c-7 -7 -12 -26 -12 -43 0 -17 5 -36 12 -43 18 -18 65 -15
72 4 9 23 1 28 -14 9 -18 -22 -39 -18 -51 9 -8 17 -8 29 0 45 13 23 47 28 54
9 2 -7 8 -10 12 -6 13 12 -6 28 -34 28 -15 0 -32 -5 -39 -12z"/>
<path d="M3482 1538 c-17 -17 -15 -73 2 -87 23 -19 70 -10 75 14 3 19 3 19
-16 3 -25 -23 -40 -23 -53 1 -23 45 24 92 59 59 11 -11 13 -10 9 2 -6 19 -59
25 -76 8z"/>
<path d="M3593 1495 c0 -33 2 -45 4 -27 2 18 2 45 0 60 -2 15 -4 0 -4 -33z"/>
<path d="M3642 1538 c-7 -7 -12 -26 -12 -43 0 -38 16 -55 52 -55 30 0 48 23
48 62 0 31 -18 48 -50 48 -14 0 -31 -5 -38 -12z m63 -43 c0 -36 -2 -40 -25
-40 -20 0 -26 6 -28 28 -5 42 5 59 30 55 20 -3 23 -9 23 -43z"/>
<path d="M3761 1491 c1 -53 2 -54 8 -16 9 51 17 65 42 65 16 0 19 -7 19 -50 0
-28 5 -50 11 -50 6 0 9 21 7 53 l-3 52 -42 1 -43 1 1 -56z"/>
<path d="M3120 1325 c-8 -9 -8 -15 -2 -15 12 0 26 19 19 26 -2 2 -10 -2 -17
-11z"/>
<path d="M971 1255 l-1 -81 37 1 c30 0 40 5 53 28 13 24 13 30 -1 55 -12 21
-22 27 -47 26 -26 -2 -31 2 -35 25 -2 14 -5 -10 -6 -54z m77 -22 c4 -40 -27
-62 -52 -37 -31 30 -16 77 23 72 21 -2 27 -9 29 -35z"/>
<path d="M1460 1320 c0 -5 5 -10 10 -10 6 0 10 5 10 10 0 6 -4 10 -10 10 -5 0
-10 -4 -10 -10z"/>
<path d="M2820 1250 c0 -46 2 -81 5 -79 7 8 9 149 1 156 -3 3 -6 -31 -6 -77z"/>
<path d="M2280 1308 c0 -9 -6 -19 -12 -21 -10 -4 -10 -7 -1 -14 6 -5 13 -28
15 -52 2 -25 8 -46 13 -48 14 -4 10 126 -4 140 -8 8 -11 7 -11 -5z"/>
<path d="M742 1278 c-20 -20 -14 -38 16 -49 15 -5 34 -12 42 -15 12 -5 12 -8
-4 -20 -17 -12 -23 -12 -43 1 -24 16 -32 8 -11 -13 25 -25 78 -8 78 26 0 7
-16 20 -35 28 -43 18 -46 38 -5 32 19 -3 29 -1 27 6 -5 16 -50 19 -65 4z"/>
<path d="M857 1272 c-20 -22 -22 -73 -5 -90 7 -7 24 -12 38 -12 36 0 50 17 50
62 0 54 -49 78 -83 40z m63 -36 c0 -38 -19 -60 -44 -50 -10 4 -16 18 -16 38 0
39 6 46 37 46 20 0 23 -5 23 -34z"/>
<path d="M1090 1230 c0 -33 4 -60 10 -60 6 0 10 21 10 46 0 37 4 47 20 51 11
3 20 9 20 14 0 13 -14 11 -28 -3 -9 -9 -12 -9 -12 0 0 7 -4 12 -10 12 -6 0
-10 -27 -10 -60z"/>
<path d="M1177 1272 c-21 -23 -22 -66 -1 -86 20 -20 58 -21 74 -1 18 22 5 31
-15 11 -12 -12 -21 -13 -36 -6 -34 19 -23 40 21 40 33 0 40 3 40 20 0 19 -27
40 -53 40 -8 0 -21 -8 -30 -18z m61 -19 c2 -9 -7 -13 -27 -13 -30 0 -39 9 -24
24 11 10 46 3 51 -11z"/>
<path d="M1356 1268 c-9 -12 -16 -29 -16 -38 0 -50 68 -80 90 -40 13 24 3 26
-22 4 -31 -29 -60 12 -42 60 7 19 50 21 57 4 2 -7 8 -10 12 -6 13 12 -15 38
-41 38 -12 0 -30 -10 -38 -22z"/>
<path d="M1460 1230 c0 -33 4 -60 10 -60 6 0 10 27 10 60 0 33 -4 60 -10 60
-6 0 -10 -27 -10 -60z"/>
<path d="M1516 1268 c-9 -12 -16 -29 -16 -38 0 -45 59 -77 88 -48 21 21 13 29
-11 13 -20 -13 -26 -13 -42 -1 -26 19 -10 36 36 36 21 0 39 3 39 8 0 20 -34
52 -55 52 -13 0 -31 -10 -39 -22z m72 -15 c2 -9 -8 -13 -32 -13 -28 0 -34 3
-29 16 7 18 54 16 61 -3z"/>
<path d="M1630 1228 c0 -32 4 -58 10 -58 6 0 10 17 10 38 0 46 12 65 36 60 15
-2 20 -14 22 -51 4 -57 22 -63 22 -6 0 62 -13 78 -60 76 l-40 -1 0 -58z"/>
<path d="M1767 1272 c-31 -34 -12 -102 28 -102 24 0 45 12 45 26 0 11 -4 12
-19 3 -28 -18 -51 -4 -51 31 0 35 23 49 51 31 15 -9 19 -8 19 3 0 29 -50 34
-73 8z"/>
<path d="M1870 1231 c0 -34 4 -60 8 -57 10 6 9 103 -1 112 -4 4 -7 -21 -7 -55z"/>
<path d="M1933 1283 c-7 -2 -13 -11 -13 -19 0 -13 3 -13 21 0 23 16 49 11 49
-9 0 -7 -16 -16 -36 -19 -68 -13 -53 -65 19 -64 l42 1 -4 46 c-2 25 -8 52 -13
59 -10 12 -42 15 -65 5z m57 -68 c0 -17 -29 -34 -47 -28 -19 7 -16 31 5 36 32
9 42 7 42 -8z"/>
<path d="M2092 1279 c42 -111 44 -120 23 -136 -20 -15 -20 -15 0 -11 28 5 92
158 66 158 -4 0 -14 -20 -21 -46 -14 -49 -24 -48 -37 5 -5 19 -15 37 -23 39
-8 3 -11 -1 -8 -9z"/>
<path d="M2347 1272 c-21 -23 -22 -66 -1 -86 20 -20 58 -21 74 -1 18 22 5 31
-15 11 -20 -19 -27 -20 -43 -4 -24 24 -13 38 28 38 33 0 40 3 40 20 0 19 -27
40 -53 40 -8 0 -21 -8 -30 -18z m63 -17 c0 -10 -10 -15 -30 -15 -29 0 -38 9
-23 23 13 13 53 7 53 -8z"/>
<path d="M2466 1268 c-42 -60 19 -132 69 -82 21 22 10 32 -12 11 -25 -22 -53
-5 -53 34 0 34 23 48 51 31 27 -17 31 -15 19 8 -14 27 -55 26 -74 -2z"/>
<path d="M2570 1226 c0 -67 17 -67 22 -1 2 33 7 41 26 43 20 3 22 -1 22 -42 0
-25 5 -48 10 -51 6 -4 10 15 10 49 0 59 -7 66 -67 63 -21 -1 -23 -6 -23 -61z"/>
<path d="M2708 1279 c-21 -12 -25 -78 -6 -97 32 -32 88 -1 88 48 0 49 -41 73
-82 49z m60 -45 c5 -52 -48 -71 -63 -23 -11 35 4 60 33 57 22 -2 28 -9 30 -34z"/>
<path d="M2876 1274 c-34 -34 -13 -104 32 -104 38 0 52 17 52 62 0 53 -49 78
-84 42z m67 -24 c7 -28 -2 -57 -20 -64 -30 -12 -56 26 -42 62 11 29 54 31 62
2z"/>
<path d="M2996 1268 c-9 -12 -16 -32 -16 -44 0 -28 34 -58 60 -51 13 3 20 0
20 -9 0 -21 -29 -29 -52 -15 -16 10 -19 10 -16 -1 6 -18 69 -23 79 -6 5 7 9
42 9 78 l0 65 -34 2 c-26 2 -39 -3 -50 -19z m59 -38 c0 -31 -3 -35 -25 -35
-19 0 -26 6 -28 23 -5 36 5 54 30 50 19 -2 23 -9 23 -38z"/>
<path d="M3120 1230 c0 -37 4 -59 10 -55 12 7 11 103 -1 111 -5 3 -9 -22 -9
-56z"/>
<path d="M3180 1270 c-7 -14 -7 -20 0 -20 5 0 10 5 10 10 0 6 11 10 25 10 36
0 31 -24 -7 -35 -26 -8 -33 -15 -33 -35 0 -23 4 -25 46 -26 l46 -1 -5 51 c-3
28 -10 54 -16 58 -21 14 -55 8 -66 -12z m64 -48 c7 -12 -7 -30 -29 -34 -25 -4
-33 29 -8 35 29 7 32 7 37 -1z"/>
</g>
</svg>
